<mxfile host="app.diagrams.net" modified="2024-02-17T18:40:39.653Z" agent="Mozilla/5.0 (Windows NT 10.0; Win64; x64) AppleWebKit/537.36 (KHTML, like Gecko) Chrome/121.0.0.0 Safari/537.36" etag="1xmnE1hlL-0fcF0ybz52" version="23.1.5" type="device">
  <diagram name="Page-1" id="V96OR2ep9DXPKzGtc8qw">
    <mxGraphModel dx="1648" dy="992" grid="1" gridSize="10" guides="1" tooltips="1" connect="1" arrows="1" fold="1" page="1" pageScale="1" pageWidth="1100" pageHeight="850" math="0" shadow="0">
      <root>
        <mxCell id="0" />
        <mxCell id="1" parent="0" />
        <mxCell id="uz5QgHpY2Cw1FlYYKC5Z-1" value="&lt;font style=&quot;font-size: 24px;&quot;&gt;Messenger Page&lt;/font&gt;" style="rounded=1;whiteSpace=wrap;html=1;fillColor=none;fontColor=#2563EB;strokeColor=#2563EB;" parent="1" vertex="1">
          <mxGeometry x="30" y="270" width="160" height="70" as="geometry" />
        </mxCell>
        <mxCell id="uz5QgHpY2Cw1FlYYKC5Z-31" value="&lt;br style=&quot;font-size: 18px; background-color: initial;&quot;&gt;&lt;ul&gt;&lt;li&gt;&lt;font style=&quot;font-size: 18px;&quot;&gt;Used socket.io to exchange instant messages&lt;/font&gt;&lt;/li&gt;&lt;li&gt;&lt;font size=&quot;3&quot;&gt;User&#39;s &lt;b&gt;JWT token&lt;/b&gt; is used when he first connects&lt;/font&gt;&lt;/li&gt;&lt;li&gt;&lt;font size=&quot;3&quot;&gt;Thus the user must remain authenticated to connect to Messenger&lt;span style=&quot;white-space: pre;&quot;&gt;&#x9;&lt;/span&gt;&lt;/font&gt;&lt;/li&gt;&lt;/ul&gt;&lt;br style=&quot;font-size: 18px; background-color: initial;&quot;&gt;&lt;ul&gt;&lt;li&gt;&lt;span style=&quot;font-size: 18px; background-color: initial;&quot;&gt;&lt;font color=&quot;#006633&quot;&gt;User sees all registered users of this platform in the contact area&lt;/font&gt;&lt;/span&gt;&lt;/li&gt;&lt;li&gt;&lt;font size=&quot;3&quot;&gt;&lt;font color=&quot;#006633&quot;&gt;User&#39;s &lt;/font&gt;&lt;b style=&quot;&quot;&gt;&lt;font color=&quot;#006633&quot;&gt;who are online are marked with &lt;/font&gt;&lt;font color=&quot;#00cc00&quot;&gt;green dot&lt;/font&gt;&lt;/b&gt;&lt;/font&gt;&lt;/li&gt;&lt;li&gt;&lt;font color=&quot;#006633&quot; size=&quot;3&quot;&gt;Can send &lt;b&gt;instant text &amp;amp; image&lt;/b&gt; messages to any user&lt;/font&gt;&lt;/li&gt;&lt;li&gt;&lt;font color=&quot;#006633&quot; size=&quot;3&quot;&gt;Messages are saved in DB so users offline will get that later&lt;/font&gt;&lt;/li&gt;&lt;li&gt;&lt;font color=&quot;#006633&quot; size=&quot;3&quot;&gt;Can create group&lt;/font&gt;&lt;/li&gt;&lt;li&gt;&lt;font color=&quot;#006633&quot; size=&quot;3&quot;&gt;Can send messages within group&lt;/font&gt;&lt;/li&gt;&lt;li&gt;&lt;font color=&quot;#006633&quot; size=&quot;3&quot; style=&quot;&quot;&gt;Can send image OR text message one at a time&lt;/font&gt;&lt;/li&gt;&lt;li&gt;&lt;font color=&quot;#006633&quot; size=&quot;3&quot;&gt;Images are saved in&amp;nbsp;imagekit.io&lt;/font&gt;&lt;/li&gt;&lt;li&gt;&lt;font color=&quot;#006633&quot; size=&quot;3&quot;&gt;Images upto 5mb of size can be uploaded (limit set by me)&lt;/font&gt;&lt;/li&gt;&lt;li&gt;&lt;font color=&quot;#006633&quot; size=&quot;3&quot;&gt;When image gets uploaded send button and textarea is disabled&lt;/font&gt;&lt;/li&gt;&lt;/ul&gt;" style="rounded=1;whiteSpace=wrap;html=1;fontColor=#2563EB;labelBackgroundColor=none;labelBorderColor=none;strokeColor=#2563EB;align=left;" parent="1" vertex="1">
          <mxGeometry x="280" y="120" width="640" height="400" as="geometry" />
        </mxCell>
        <mxCell id="FxMdJe1kMajjNA-1XhJt-7" value="" style="shape=flexArrow;endArrow=classic;html=1;rounded=0;strokeColor=#FF0080;" parent="1" edge="1">
          <mxGeometry width="50" height="50" relative="1" as="geometry">
            <mxPoint x="200" y="304.5" as="sourcePoint" />
            <mxPoint x="270" y="304.5" as="targetPoint" />
          </mxGeometry>
        </mxCell>
        <mxCell id="FxMdJe1kMajjNA-1XhJt-10" value="&lt;font style=&quot;font-size: 24px;&quot;&gt;Settings Page&lt;/font&gt;" style="rounded=1;whiteSpace=wrap;html=1;fillColor=none;fontColor=#2563EB;strokeColor=#2563EB;" parent="1" vertex="1">
          <mxGeometry x="30" y="640" width="160" height="52" as="geometry" />
        </mxCell>
        <mxCell id="FxMdJe1kMajjNA-1XhJt-11" value="&lt;ul&gt;&lt;li&gt;&lt;font style=&quot;font-size: 18px;&quot;&gt;User can set a new password&lt;br&gt;&lt;/font&gt;&lt;/li&gt;&lt;li&gt;&lt;font color=&quot;#ff0000&quot; style=&quot;font-size: 18px;&quot;&gt;&lt;b&gt;Password of Guest users can&#39;t be changed&lt;/b&gt;&lt;/font&gt;&lt;/li&gt;&lt;/ul&gt;" style="rounded=1;whiteSpace=wrap;html=1;fontColor=#2563EB;labelBackgroundColor=none;labelBorderColor=none;strokeColor=#2563EB;align=left;" parent="1" vertex="1">
          <mxGeometry x="290" y="600" width="630" height="150" as="geometry" />
        </mxCell>
        <mxCell id="FxMdJe1kMajjNA-1XhJt-12" value="" style="shape=flexArrow;endArrow=classic;html=1;rounded=0;strokeColor=#FF0080;" parent="1" edge="1">
          <mxGeometry width="50" height="50" relative="1" as="geometry">
            <mxPoint x="200" y="665.5" as="sourcePoint" />
            <mxPoint x="270" y="665.5" as="targetPoint" />
          </mxGeometry>
        </mxCell>
      </root>
    </mxGraphModel>
  </diagram>
</mxfile>
